<svg width="25" height="25" viewBox="0 0 25 25" fill="none" xmlns="http://www.w3.org/2000/svg">
<g clip-path="url(#clip0_6640_9945)">
<path d="M21.3945 8.37154C21.2591 8.47954 18.8689 9.86434 18.8689 12.9435C18.8689 16.5051 21.9103 17.7651 22.0014 17.7963C21.9874 17.8731 21.5182 19.5219 20.3978 21.2019C19.3988 22.6803 18.3554 24.1563 16.7682 24.1563C15.181 24.1563 14.7725 23.2083 12.9402 23.2083C11.1546 23.2083 10.5197 24.1875 9.06782 24.1875C7.61598 24.1875 6.60296 22.8195 5.43821 21.1395C4.08907 19.1667 2.99902 16.1019 2.99902 13.1931C2.99902 8.52754 5.94939 6.05314 8.85308 6.05314C10.396 6.05314 11.6821 7.09474 12.6507 7.09474C13.5727 7.09474 15.0106 5.99074 16.7659 5.99074C17.4311 5.99074 19.8213 6.05314 21.3945 8.37154ZM15.9326 4.01554C16.6585 3.12994 17.172 1.90114 17.172 0.672341C17.172 0.501941 17.158 0.329141 17.1276 0.189941C15.9466 0.235541 14.5414 0.998741 13.6941 2.00914C13.0289 2.78674 12.408 4.01554 12.408 5.26114C12.408 5.44834 12.4383 5.63554 12.4523 5.69554C12.527 5.70994 12.6484 5.72674 12.7698 5.72674C13.8295 5.72674 15.1623 4.99714 15.9326 4.01554Z" fill="#3D3D3D"/>
</g>
<defs>
<clipPath id="clip0_6640_9945">
<rect width="24" height="23.9976" fill="white" transform="translate(0.5 0.189941)"/>
</clipPath>
</defs>
</svg>
