<svg width="12" height="7" viewBox="0 0 12 7" fill="none" xmlns="http://www.w3.org/2000/svg">
<path d="M10.8345 0.957654C10.7613 0.882418 10.6742 0.822701 10.5782 0.781948C10.4823 0.741196 10.3794 0.720215 10.2754 0.720215C10.1715 0.720215 10.0686 0.741196 9.97263 0.781948C9.87668 0.822701 9.7896 0.882418 9.7164 0.957654L6.11027 4.63405C6.03708 4.70929 5.94999 4.76901 5.85404 4.80976C5.7581 4.85051 5.65518 4.87149 5.55124 4.87149C5.4473 4.87149 5.34439 4.85051 5.24844 4.80976C5.15249 4.76901 5.06541 4.70929 4.99221 4.63405L1.38608 0.957654C1.31289 0.882418 1.2258 0.822701 1.12985 0.781948C1.03391 0.741196 0.930993 0.720215 0.827052 0.720215C0.72311 0.720215 0.620197 0.741196 0.524249 0.781948C0.428302 0.822701 0.341218 0.882418 0.268022 0.957654C0.121375 1.10805 0.0390625 1.3115 0.0390625 1.52356C0.0390625 1.73563 0.121375 1.93907 0.268022 2.08947L3.88203 5.7739C4.32492 6.22486 4.92528 6.47816 5.55124 6.47816C6.1772 6.47816 6.77756 6.22486 7.22046 5.7739L10.8345 2.08947C10.9811 1.93907 11.0634 1.73563 11.0634 1.52356C11.0634 1.3115 10.9811 1.10805 10.8345 0.957654Z" fill="#3D3D3D"/>
</svg>
