<svg width="12" height="7" viewBox="0 0 12 7" fill="none" xmlns="http://www.w3.org/2000/svg">
<g clip-path="url(#clip0_11140_13821)">
<path d="M1.1655 6.04235C1.2387 6.11758 1.3258 6.1773 1.4218 6.21805C1.5177 6.2588 1.6206 6.27978 1.7246 6.27978C1.8285 6.27978 1.9314 6.2588 2.02737 6.21805C2.12332 6.1773 2.2104 6.11758 2.2836 6.04235L5.88973 2.36595C5.96292 2.29071 6.05001 2.23099 6.14596 2.19024C6.2419 2.14949 6.34482 2.12851 6.44876 2.12851C6.5527 2.12851 6.65561 2.14949 6.75156 2.19024C6.84751 2.23099 6.93459 2.29071 7.00779 2.36595L10.6139 6.04235C10.6871 6.11758 10.7742 6.1773 10.8701 6.21805C10.9661 6.2588 11.069 6.27979 11.1729 6.27979C11.2769 6.27979 11.3798 6.2588 11.4758 6.21805C11.5717 6.1773 11.6588 6.11758 11.732 6.04235C11.8786 5.89195 11.9609 5.6885 11.9609 5.47644C11.9609 5.26437 11.8786 5.06093 11.732 4.91053L8.11797 1.2261C7.67508 0.77514 7.07472 0.52184 6.44876 0.52184C5.8228 0.52184 5.22244 0.775139 4.77954 1.2261L1.1655 4.91053C1.0189 5.06093 0.9366 5.26437 0.9366 5.47644C0.9366 5.6885 1.0189 5.89195 1.1655 6.04235Z" fill="#3D3D3D"/>
</g>
<defs>
<clipPath id="clip0_11140_13821">
<rect width="12" height="7" fill="white" transform="translate(12 7) rotate(-180)"/>
</clipPath>
</defs>
</svg>
