<svg width="12" height="6" viewBox="0 0 12 6" fill="none" xmlns="http://www.w3.org/2000/svg">
<path d="M0.229015 5.52037C0.302211 5.59561 0.389293 5.65533 0.485241 5.69608C0.581189 5.73683 0.684102 5.75781 0.788043 5.75781C0.891985 5.75781 0.994898 5.73683 1.09085 5.69608C1.18679 5.65533 1.27388 5.59561 1.34707 5.52037L4.95321 1.84397C5.0264 1.76874 5.11348 1.70902 5.20943 1.66827C5.30538 1.62752 5.40829 1.60653 5.51223 1.60653C5.61618 1.60653 5.71909 1.62752 5.81504 1.66827C5.91098 1.70902 5.99807 1.76874 6.07126 1.84397L9.6774 5.52037C9.75059 5.59561 9.83767 5.65533 9.93362 5.69608C10.0296 5.73683 10.1325 5.75781 10.2364 5.75781C10.3404 5.75781 10.4433 5.73683 10.5392 5.69608C10.6352 5.65533 10.7223 5.59561 10.7955 5.52037C10.9421 5.36998 11.0244 5.16653 11.0244 4.95446C11.0244 4.7424 10.9421 4.53895 10.7955 4.38856L7.18145 0.70413C6.73855 0.253168 6.13819 -0.00013313 5.51223 -0.000133185C4.88628 -0.000133239 4.28591 0.253168 3.84302 0.70413L0.229015 4.38856C0.0823674 4.53895 5.34819e-05 4.7424 5.34634e-05 4.95446C5.34448e-05 5.16653 0.0823673 5.36997 0.229015 5.52037Z" fill="#3D3D3D"/>
</svg>
