<svg width="20" height="22" viewBox="0 0 20 22" fill="none" xmlns="http://www.w3.org/2000/svg">
<g clip-path="url(#clip0_11178_13753)">
<path d="M6.80186 13.5606L14.8224 13.5606C14.9933 13.5606 15.523 13.3498 15.6939 13.2586C17.6307 12.2333 17.4427 9.36232 15.392 8.6047C15.2781 8.56482 14.9021 8.42811 14.8167 8.42811L6.79616 8.42811L6.79616 3.96784C6.79616 2.32159 8.39115 1.09686 9.91208 1.00003C12.3274 0.846224 14.9819 1.05699 17.4085 1.07978C18.9238 1.45004 19.8238 2.63489 19.9149 4.17861C20.177 8.64457 19.7099 13.3612 19.9149 17.8556C19.8295 19.593 18.5706 20.8633 16.8503 20.9829C14.4578 21.1538 11.8033 20.9032 9.39371 20.926C8.10633 20.7494 6.80186 19.3367 6.80186 18.0208L6.80186 13.5606Z" fill="#3D3D3D"/>
<path d="M2.91139 10.1426L14.6687 10.1426C14.6687 10.1426 14.9194 10.2508 14.9592 10.2793C15.4719 10.6154 15.4719 11.3844 14.9592 11.7148C14.9194 11.7433 14.6915 11.8515 14.6687 11.8515L2.91709 11.8515L4.91652 13.8794C5.53743 14.6883 4.56904 15.7308 3.66332 15.0301C2.50695 14.1358 1.43603 12.5921 0.279666 11.6408C-0.0507238 11.2819 -0.0905985 10.792 0.228399 10.4103C1.40185 9.44195 2.48986 7.87545 3.66332 6.96403C4.40385 6.39439 5.30957 6.97542 5.07602 7.84697C4.945 8.33685 3.24748 9.60145 2.91709 10.1426L2.91139 10.1426Z" fill="#3D3D3D"/>
</g>
<defs>
<clipPath id="clip0_11178_13753">
<rect width="20" height="20.0911" fill="white" transform="translate(20 21.0457) rotate(-180)"/>
</clipPath>
</defs>
</svg>
