<svg width="28" height="28" viewBox="0 0 28 28" fill="none" xmlns="http://www.w3.org/2000/svg">
<path d="M1.78906 6.69212C1.78906 6.02321 2.33132 5.48096 3.00023 5.48096L24.9999 5.48098C25.6688 5.48098 26.2111 6.02323 26.2111 6.69214C26.2111 7.36106 25.6688 7.90332 24.9999 7.90332L3.00023 7.9033C2.33132 7.9033 1.78906 7.36104 1.78906 6.69212Z" fill="#232323"/>
<path d="M1.78906 13.9998C1.78906 13.3308 2.33132 12.7886 3.00023 12.7886H25C25.6688 12.7886 26.2111 13.3308 26.2111 13.9998C26.2111 14.6686 25.6688 15.2108 25 15.2108H3.00023C2.33132 15.2108 1.78906 14.6686 1.78906 13.9998Z" fill="#232323"/>
<path d="M3.00023 20.0969C2.33132 20.0969 1.78906 20.6392 1.78906 21.3081C1.78906 21.977 2.33132 22.5193 3.00023 22.5193H25C25.6688 22.5193 26.2111 21.977 26.2111 21.3081C26.2111 20.6392 25.6688 20.0969 25 20.0969H3.00023Z" fill="#232323"/>
</svg>
