<svg width="18" height="18" viewBox="0 0 18 18" fill="none" xmlns="http://www.w3.org/2000/svg">
<path d="M5.5 15C6.32843 15 7 15.6716 7 16.5C7 17.3284 6.32843 18 5.5 18C4.67157 18 4 17.3284 4 16.5C4 15.6716 4.67157 15 5.5 15ZM13.5 15C14.3284 15 15 15.6716 15 16.5C15 17.3284 14.3284 18 13.5 18C12.6716 18 12 17.3284 12 16.5C12 15.6716 12.6716 15 13.5 15ZM0.939453 0C1.50426 0.000251839 2.04966 0.198852 2.47168 0.558594C2.89371 0.91836 3.16341 1.41456 3.22949 1.95215L3.26172 2.21094H15.6924C16.0301 2.21054 16.364 2.28091 16.6699 2.41797C16.9758 2.55507 17.2467 2.75532 17.4629 3.00391C17.6795 3.25198 17.8375 3.54274 17.9238 3.85547C18.0102 4.16812 18.0231 4.49525 17.9629 4.81348L17.3594 8.02246C17.1994 8.87226 16.7333 9.64148 16.042 10.1953C15.3505 10.7492 14.4774 11.0527 13.5762 11.0527H4.41113C4.56976 11.4826 4.8629 11.8553 5.25098 12.1191C5.63912 12.383 6.10325 12.5251 6.5791 12.5264H14.6084C14.8123 12.5264 15.0082 12.604 15.1523 12.7422C15.2963 12.8803 15.3768 13.0675 15.377 13.2627C15.377 13.4581 15.2965 13.646 15.1523 13.7842C15.0082 13.9224 14.8123 14 14.6084 14H6.5791C5.63716 14 4.72824 13.6683 4.02441 13.0684C3.32057 12.4684 2.87058 11.6417 2.76074 10.7451L1.70312 2.12402C1.68103 1.9449 1.59084 1.78002 1.4502 1.66016C1.30947 1.54023 1.12777 1.47366 0.939453 1.47363H0.768555C0.564834 1.47355 0.369686 1.39582 0.225586 1.25781C0.0815092 1.11974 0.000127726 0.932561 0 0.737305C0 0.541882 0.0813954 0.354005 0.225586 0.21582C0.369684 0.0778267 0.564846 7.91893e-05 0.768555 0H0.939453ZM4.16602 9.5791H13.5762C14.1175 9.57982 14.642 9.39784 15.0576 9.06543C15.4731 8.73303 15.7536 8.27119 15.8496 7.76074L16.4541 4.55176C16.4741 4.4454 16.4694 4.33589 16.4404 4.23145C16.4114 4.12703 16.3586 4.03003 16.2861 3.94727C16.2135 3.8644 16.1221 3.79737 16.0195 3.75195C15.9171 3.70662 15.8052 3.68392 15.6924 3.68457H3.44336L4.16602 9.5791Z" fill="#3D3D3D"/>
</svg>
