<svg width="24" height="24" viewBox="0 0 24 24" fill="none" xmlns="http://www.w3.org/2000/svg">
<path d="M8.5 18C9.32843 18 10 18.6716 10 19.5C10 20.3284 9.32843 21 8.5 21C7.67157 21 7 20.3284 7 19.5C7 18.6716 7.67157 18 8.5 18ZM16.5 18C17.3284 18 18 18.6716 18 19.5C18 20.3284 17.3284 21 16.5 21C15.6716 21 15 20.3284 15 19.5C15 18.6716 15.6716 18 16.5 18ZM3.93945 3C4.50426 3.00025 5.04966 3.19885 5.47168 3.55859C5.89371 3.91836 6.16341 4.41456 6.22949 4.95215L6.26172 5.21094H18.6924C19.0301 5.21054 19.364 5.28091 19.6699 5.41797C19.9758 5.55507 20.2467 5.75532 20.4629 6.00391C20.6795 6.25198 20.8375 6.54274 20.9238 6.85547C21.0102 7.16812 21.0231 7.49525 20.9629 7.81348L20.3594 11.0225C20.1994 11.8723 19.7333 12.6415 19.042 13.1953C18.3505 13.7492 17.4774 14.0527 16.5762 14.0527H7.41113C7.56976 14.4826 7.8629 14.8553 8.25098 15.1191C8.63912 15.383 9.10325 15.5251 9.5791 15.5264H17.6084C17.8123 15.5264 18.0082 15.604 18.1523 15.7422C18.2963 15.8803 18.3768 16.0675 18.377 16.2627C18.377 16.4581 18.2965 16.646 18.1523 16.7842C18.0082 16.9224 17.8123 17 17.6084 17H9.5791C8.63716 17 7.72824 16.6683 7.02441 16.0684C6.32057 15.4684 5.87058 14.6417 5.76074 13.7451L4.70312 5.12402C4.68103 4.9449 4.59084 4.78002 4.4502 4.66016C4.30947 4.54023 4.12777 4.47366 3.93945 4.47363H3.76855C3.56483 4.47355 3.36969 4.39582 3.22559 4.25781C3.08151 4.11974 3.00013 3.93256 3 3.7373C3 3.54188 3.0814 3.35401 3.22559 3.21582C3.36968 3.07783 3.56485 3.00008 3.76855 3H3.93945ZM7.16602 12.5791H16.5762C17.1175 12.5798 17.642 12.3978 18.0576 12.0654C18.4731 11.733 18.7536 11.2712 18.8496 10.7607L19.4541 7.55176C19.4741 7.4454 19.4694 7.33589 19.4404 7.23145C19.4114 7.12703 19.3586 7.03003 19.2861 6.94727C19.2135 6.8644 19.1221 6.79737 19.0195 6.75195C18.9171 6.70662 18.8052 6.68392 18.6924 6.68457H6.44336L7.16602 12.5791Z" fill="#3D3D3D"/>
</svg>
