<svg width="29" height="28" viewBox="0 0 29 28" fill="none" xmlns="http://www.w3.org/2000/svg">
<path d="M11.8583 4.8916H7.03327C6.26467 4.8916 5.6416 5.51467 5.6416 6.28327V11.1083C5.6416 11.8769 6.26467 12.4999 7.03327 12.4999H11.8583C12.6269 12.4999 13.2499 11.8769 13.2499 11.1083V6.28327C13.2499 5.51467 12.6269 4.8916 11.8583 4.8916Z" fill="#E1A141" stroke="#E1A141" stroke-width="1.3" stroke-linecap="round" stroke-linejoin="round"/>
<path d="M22.4667 4.8916H17.6417C16.8731 4.8916 16.25 5.51467 16.25 6.28327V11.1083C16.25 11.8769 16.8731 12.4999 17.6417 12.4999H22.4667C23.2353 12.4999 23.8583 11.8769 23.8583 11.1083V6.28327C23.8583 5.51467 23.2353 4.8916 22.4667 4.8916Z" fill="#E1A141" stroke="#E1A141" stroke-width="1.3" stroke-linejoin="round"/>
<path d="M11.8583 15.5H7.03327C6.26467 15.5 5.6416 16.1231 5.6416 16.8917V21.7167C5.6416 22.4853 6.26467 23.1083 7.03327 23.1083H11.8583C12.6269 23.1083 13.2499 22.4853 13.2499 21.7167V16.8917C13.2499 16.1231 12.6269 15.5 11.8583 15.5Z" fill="#E1A141" stroke="#E1A141" stroke-width="1.3" stroke-linejoin="round"/>
<path d="M22.4667 15.5H17.6417C16.8731 15.5 16.25 16.1231 16.25 16.8917V21.7167C16.25 22.4853 16.8731 23.1083 17.6417 23.1083H22.4667C23.2353 23.1083 23.8583 22.4853 23.8583 21.7167V16.8917C23.8583 16.1231 23.2353 15.5 22.4667 15.5Z" fill="#E1A141" stroke="#E1A141" stroke-width="1.3" stroke-linejoin="round"/>
</svg>
