<svg width="24" height="25" viewBox="0 0 24 25" fill="none" xmlns="http://www.w3.org/2000/svg">
<path d="M22 8.79696V16.939C22.0001 17.7691 21.6824 18.5678 21.1123 19.1712C20.5422 19.7746 19.7628 20.137 18.934 20.184L18.75 20.189H5.25C4.41986 20.189 3.62117 19.8714 3.01777 19.3013C2.41437 18.7312 2.052 17.9518 2.005 17.123L2 16.939V8.79696L11.652 13.853C11.7594 13.9092 11.8788 13.9386 12 13.9386C12.1212 13.9386 12.2406 13.9092 12.348 13.853L22 8.79696ZM5.25 4.18896H18.75C19.5556 4.18887 20.3325 4.48796 20.93 5.02823C21.5276 5.5685 21.9032 6.31145 21.984 7.11296L12 12.343L2.016 7.11296C2.09352 6.34328 2.44305 5.62648 3.00175 5.09143C3.56045 4.55637 4.29168 4.23815 5.064 4.19396L5.25 4.18896Z" fill="#3D3D3D"/>
</svg>
