<svg width="48" height="43" viewBox="0 0 48 43" fill="none" xmlns="http://www.w3.org/2000/svg">
<path d="M31.8099 13.3639C31.0988 12.802 30.3319 12.3829 29.5084 12.1081C30.6064 11.5832 31.4359 10.8583 31.9977 9.93403C32.5588 9.00974 32.8401 7.96009 32.8401 6.7851C32.8401 4.63673 32.1908 2.99959 30.8929 1.87519C29.5951 0.751543 27.6743 0.188965 25.1292 0.188965H14.1989V9.97027C13.3339 11.581 13.1175 13.0694 13.2261 14.3606C13.3429 13.0837 13.8286 11.6663 15.0013 10.2338C19.1354 5.18421 30.0883 3.79777 29.2308 4.76963C25.5583 8.93271 27.7641 13.8283 25.3976 17.2974C23.6164 19.9086 19.8812 20.327 17.6339 20.3315C17.6339 20.3315 16.87 22.3659 16.6747 24.7695C16.6098 25.576 14.9191 25.3494 14.9492 24.6766C15.3346 16.1526 24.6337 8.48718 24.6337 8.48718C24.6337 8.48718 17.0057 11.0373 14.1989 18.8749V26.427H25.5032C26.5258 26.427 27.5491 26.3084 28.5725 26.0713C29.5958 25.8342 30.5317 25.428 31.3801 24.8533C32.2285 24.2786 32.9147 23.491 33.4388 22.4912C33.963 21.4922 34.2254 20.2303 34.2254 18.7057C34.2254 17.4567 34.0007 16.395 33.552 15.5205C33.1018 14.6453 32.5211 13.9264 31.8099 13.3639Z" fill="#3D3D3D"/>
<path d="M46.1001 2.62463L46.6512 3.66811H46.1176L45.579 2.62463H46.1001ZM44.7636 3.66811V1.45435H45.8832C45.973 1.45435 46.0702 1.48076 46.1774 1.53096C46.2822 1.58115 46.3744 1.6604 46.4492 1.76607C46.524 1.87174 46.5614 2.00382 46.5614 2.16497C46.5614 2.32611 46.5215 2.46613 46.4442 2.57708C46.3669 2.69067 46.2722 2.77521 46.16 2.83332C46.0503 2.89144 45.9455 2.9205 45.8458 2.9205H45.0379V2.56123H45.6962C45.7635 2.56123 45.8333 2.52953 45.9106 2.46348C45.9879 2.39744 46.0253 2.29706 46.0253 2.16497C46.0253 2.03288 45.9854 1.93778 45.9106 1.89023C45.8333 1.84268 45.766 1.8189 45.7087 1.8189H45.2474V3.67339H44.7611L44.7636 3.66811ZM45.6014 4.41307C45.9381 4.41307 46.2423 4.33118 46.5191 4.16739C46.7933 4.0036 47.0128 3.7817 47.1773 3.50696C47.3419 3.22958 47.4217 2.92314 47.4217 2.58764C47.4217 2.25215 47.3394 1.94571 47.1773 1.66833C47.0128 1.39359 46.7933 1.17168 46.5191 1.0079C46.2423 0.844111 45.9381 0.762218 45.6014 0.762218C45.2648 0.762218 44.9606 0.844111 44.6838 1.0079C44.4095 1.17168 44.1876 1.39359 44.0255 1.66833C43.861 1.94307 43.7787 2.25215 43.7787 2.58764C43.7787 2.92314 43.861 3.22958 44.0255 3.50696C44.1876 3.7817 44.4095 4.0036 44.6838 4.16739C44.9581 4.33118 45.2648 4.41307 45.6014 4.41307ZM45.6014 4.98897C45.2698 4.98897 44.9581 4.92821 44.6689 4.8014C44.3796 4.67724 44.1253 4.50553 43.9034 4.28627C43.6839 4.06701 43.5119 3.81076 43.3872 3.52017C43.2625 3.22958 43.2002 2.91786 43.2002 2.58764C43.2002 2.25743 43.2625 1.94571 43.3872 1.65512C43.5094 1.36453 43.6814 1.10828 43.9034 0.88902C44.1228 0.669757 44.3771 0.498046 44.6689 0.373885C44.9581 0.249724 45.2698 0.188965 45.6014 0.188965C45.9331 0.188965 46.2448 0.252366 46.534 0.373885C46.8233 0.498046 47.0776 0.669757 47.2995 0.88902C47.5189 1.10828 47.691 1.36453 47.8157 1.65512C47.9403 1.94571 48.0002 2.25743 48.0002 2.58764C48.0002 2.91786 47.9379 3.23222 47.8157 3.52017C47.691 3.81076 47.5189 4.06701 47.2995 4.28627C47.0801 4.50553 46.8258 4.67724 46.534 4.8014C46.2448 4.92556 45.9331 4.98897 45.6014 4.98897Z" fill="#3D3D3D"/>
<path d="M1.05351 32.9199H0V43.0003H5.91837V42.0813H1.05351V32.9199Z" fill="#3D3D3D"/>
<path d="M16.1536 32.9199H15.1084V43.0003H16.1536V32.9199Z" fill="#3D3D3D"/>
<path d="M26.2363 43.0003H27.2815V38.3849H31.8764V37.4666H27.2815V33.8374H32.5536V32.9199H26.2363V43.0003Z" fill="#3D3D3D"/>
<path d="M42.7005 42.0813V38.2701H47.3097V37.3511H42.7005V33.8374H47.9658V32.9199H41.6553V43.0003H47.9997V42.0813H42.7005Z" fill="#3D3D3D"/>
</svg>
