<svg width="600" height="117" viewBox="0 0 600 117" fill="none" xmlns="http://www.w3.org/2000/svg">
<path d="M61.8207 45.9259C60.1964 44.2993 57.9987 43.7252 55.7056 42.5771C55.7056 42.003 56.2789 42.003 56.2789 42.003C61.2474 39.2283 64.5917 35.4012 66.216 29.2777C67.3626 24.3024 67.3626 19.9011 65.6427 14.9258C64.4961 10.5246 61.8207 6.60174 57.9032 4.40112C54.559 2.2005 50.737 1.05235 46.915 0.573953C46.3417 -0.000122192 45.2906 0.573953 44.7173 -0.00012207H3.91754V33.6789C3.91754 34.253 3.91754 34.8271 3.34424 35.3055C1.1466 39.7067 0 44.682 0 49.0833C0.573299 48.5092 0.573299 47.9351 0.573299 47.4567C1.7199 41.3333 5.54189 35.8796 9.93718 31.4783C14.9058 27.0771 20.4477 23.7283 25.894 21.5277C33.0602 18.753 40.7998 16.5524 48.5393 14.3518C50.1637 14.3518 52.3613 13.7777 54.0812 14.3518C55.2278 14.3518 55.2278 14.9258 54.6545 15.4999C52.4569 17.7005 50.8325 20.4752 49.6859 23.2499C47.4883 28.7993 46.915 34.8271 46.3417 40.9506C45.7684 44.7777 45.7684 48.7006 44.7173 51.9537C43.5707 56.929 41.3731 61.3302 36.9778 64.679C32.5825 68.0278 26.4673 69.6543 21.021 70.2284C18.8233 70.8024 17.199 70.8024 14.9058 70.8024C13.2814 75.7778 12.1348 80.7531 11.5615 86.3025C11.5615 87.4506 10.9882 88.5031 9.93718 88.5031H7.73954C6.11519 88.5031 5.54189 87.3549 5.54189 86.3025C6.11519 84.1018 6.11519 81.3272 6.68849 79.1265C8.31284 71.9506 11.0838 65.3487 15.0013 58.6512C21.5943 48.1265 29.3338 38.7499 38.2199 30.4258C38.6021 30.4258 38.7932 30.2345 38.7932 29.8518H38.2199C33.2513 32.0524 28.856 34.253 24.9385 37.6018C15.0013 44.7777 8.40839 54.1543 3.43979 65.2531V92.9043H45.3862C49.2082 92.3303 53.1257 91.7562 56.9477 90.1296C63.5406 87.3549 67.9359 82.9537 70.2291 76.3518C71.3757 71.9506 71.8535 67.5494 71.3757 62.574C70.8024 55.3981 67.5537 49.8487 62.0118 46.0215L61.8207 45.9259Z" fill="#232323"/>
<path d="M77.8862 90.1718L89.8962 18.6304H106.175L104.111 30.7869H105.003C107.192 26.6882 110.21 23.4899 114.057 21.1922C117.904 18.8633 122.236 17.6989 127.052 17.6989C131.9 17.6989 135.809 18.8789 138.781 21.2387C141.783 23.5675 143.628 26.7503 144.317 30.7869H145.067C147.319 26.7813 150.54 23.5986 154.731 21.2387C158.954 18.8789 163.692 17.6989 168.946 17.6989C175.514 17.6989 180.55 19.7793 184.053 23.9402C187.556 28.101 188.635 34.1714 187.29 42.1515L179.221 90.1718H162.238L169.932 44.7598C170.62 40.3195 169.932 37.0747 167.867 35.0254C165.834 32.9449 163.098 31.9047 159.657 31.9047C155.56 31.9047 152.151 33.1623 149.43 35.6774C146.74 38.1926 145.083 41.484 144.457 45.5516L136.904 90.1718H120.25L128.037 44.0612C128.6 40.3661 127.944 37.4163 126.067 35.2117C124.222 33.007 121.501 31.9047 117.904 31.9047C115.464 31.9047 113.134 32.5257 110.914 33.7678C108.693 35.0098 106.801 36.7487 105.237 38.9843C103.705 41.189 102.704 43.7507 102.235 46.6695L94.916 90.1718H77.8862Z" fill="#232323"/>
<path d="M209.025 91.6157C204.458 91.6157 200.486 90.8084 197.109 89.1937C193.731 87.548 191.244 85.1261 189.649 81.9278C188.085 78.7296 187.694 74.7861 188.476 70.0974C189.164 66.0608 190.478 62.7228 192.417 60.0835C194.387 57.4441 196.796 55.3327 199.642 53.7491C202.519 52.1344 205.647 50.9234 209.025 50.1161C212.434 49.3088 215.905 48.7188 219.44 48.3462C223.756 47.9115 227.243 47.5078 229.901 47.1352C232.591 46.7626 234.609 46.2037 235.953 45.4585C237.298 44.6822 238.111 43.5023 238.393 41.9187V41.6392C238.956 38.1304 238.393 35.4135 236.704 33.4883C235.015 31.5632 232.2 30.6006 228.259 30.6006C224.131 30.6006 220.659 31.5011 217.845 33.302C215.03 35.103 212.981 37.23 211.699 39.683L196.311 37.4473C198.25 33.1002 200.909 29.4672 204.286 26.5484C207.664 23.5986 211.558 21.394 215.968 19.9346C220.409 18.4441 225.148 17.6989 230.183 17.6989C233.623 17.6989 236.985 18.1026 240.269 18.9099C243.585 19.7172 246.509 21.0524 249.042 22.9155C251.607 24.7475 253.484 27.2471 254.672 30.4143C255.892 33.5815 256.095 37.5405 255.282 42.2913L247.26 90.1718H230.934L232.622 80.3442H232.06C230.715 82.3315 228.963 84.1945 226.805 85.9334C224.647 87.6412 222.082 89.023 219.111 90.0787C216.14 91.1034 212.778 91.6157 209.025 91.6157ZM215.452 79.2264C218.861 79.2264 221.926 78.5588 224.647 77.2236C227.368 75.8574 229.604 74.0564 231.356 71.8207C233.107 69.5851 234.202 67.1476 234.64 64.5082L236.047 56.0779C235.422 56.5126 234.452 56.9163 233.139 57.2889C231.825 57.6615 230.355 57.9875 228.729 58.267C227.134 58.5465 225.554 58.7949 223.99 59.0122C222.426 59.2296 221.082 59.4159 219.956 59.5711C217.36 59.9127 214.983 60.4716 212.825 61.2479C210.698 62.0242 208.931 63.1109 207.523 64.5082C206.147 65.8745 205.287 67.6444 204.943 69.8179C204.443 72.892 205.178 75.2363 207.148 76.851C209.119 78.4346 211.886 79.2264 215.452 79.2264Z" fill="#232323"/>
<path d="M259.975 117C257.661 117 255.55 116.814 253.642 116.441C251.765 116.099 250.28 115.696 249.185 115.23L255.378 102.095C257.723 102.81 259.835 103.12 261.711 103.027C263.619 102.965 265.37 102.328 266.965 101.117C268.592 99.9374 270.187 97.9967 271.751 95.2953L273.909 91.4294L260.116 18.6304H277.474L284.98 72.7523H285.731L311.487 18.6304H330.206L288.03 98.7419C285.997 102.623 283.636 105.915 280.946 108.616C278.256 111.349 275.175 113.429 271.704 114.857C268.263 116.286 264.354 117 259.975 117Z" fill="#232323"/>
<path d="M351.19 91.5691C344.09 91.5691 338.179 90.0166 333.456 86.9115C328.765 83.8064 325.465 79.4437 323.557 73.8235C321.65 68.2033 321.306 61.6826 322.525 54.2614C323.745 46.9334 326.185 40.5214 329.844 35.0254C333.535 29.5293 338.179 25.2754 343.777 22.2634C349.407 19.2204 355.709 17.6989 362.684 17.6989C369.784 17.6989 375.679 19.267 380.37 22.4031C385.062 25.5082 388.361 29.8709 390.269 35.4911C392.208 41.1113 392.568 47.6631 391.348 55.1464C390.16 62.4433 387.705 68.8243 383.983 74.2893C380.292 79.7543 375.648 84.0082 370.049 87.0512C364.451 90.0632 358.164 91.5691 351.19 91.5691ZM352.597 78.062C356.538 78.062 359.994 77.0062 362.965 74.8948C365.968 72.7523 368.423 69.88 370.331 66.2781C372.27 62.6452 373.615 58.6086 374.365 54.1683C375.054 49.8832 375.069 46.0019 374.412 42.5242C373.756 39.0154 372.348 36.2363 370.19 34.187C368.063 32.1066 365.108 31.0664 361.323 31.0664C357.383 31.0664 353.895 32.1531 350.861 34.3267C347.859 36.4692 345.404 39.357 343.496 42.9899C341.588 46.5918 340.275 50.6129 339.555 55.0532C338.836 59.3383 338.805 63.2196 339.461 66.6973C340.118 70.175 341.526 72.9386 343.684 74.9879C345.842 77.0373 348.813 78.062 352.597 78.062Z" fill="#232323"/>
<path d="M392.019 90.1718L404.029 18.6304H420.496L418.478 30.554H419.229C421.199 26.4242 423.983 23.2415 427.58 21.0058C431.208 18.7391 435.086 17.6058 439.214 17.6058C440.184 17.6058 441.232 17.6523 442.358 17.7455C443.484 17.8076 444.453 17.9163 445.266 18.0715L442.639 33.5815C441.92 33.3331 440.794 33.1157 439.261 32.9294C437.76 32.7121 436.274 32.6034 434.804 32.6034C431.708 32.6034 428.831 33.271 426.172 34.6062C423.545 35.9103 421.324 37.7268 419.51 40.0556C417.696 42.3844 416.524 45.0703 415.992 48.1133L409.002 90.1718H392.019Z" fill="#232323"/>
<path d="M465.347 91.5691C458.123 91.5691 452.149 90.0787 447.426 87.0978C442.704 84.0859 439.388 79.8319 437.48 74.3359C435.604 68.8088 435.291 62.3036 436.542 54.8203C437.762 47.4613 440.248 41.0027 444.001 35.4445C447.755 29.8554 452.446 25.5082 458.076 22.4031C463.737 19.267 469.992 17.6989 476.841 17.6989C481.283 17.6989 485.364 18.4131 489.086 19.8414C492.808 21.2387 495.951 23.4123 498.516 26.3621C501.08 29.312 502.847 33.0691 503.817 37.6336C504.786 42.1671 504.74 47.5699 503.676 53.8422L502.879 59.0122H443.767L445.597 47.6476H488.382C488.945 44.4183 488.757 41.546 487.819 39.0309C486.881 36.4847 485.317 34.482 483.128 33.0226C480.938 31.5632 478.202 30.8335 474.918 30.8335C471.571 30.8335 468.444 31.6874 465.535 33.3952C462.658 35.0719 460.234 37.2455 458.263 39.9159C456.293 42.5863 455.042 45.3964 454.51 48.3462L452.587 59.2451C451.899 63.7164 452.055 67.3649 453.056 70.1906C454.057 73.0162 455.808 75.0966 458.31 76.4318C460.812 77.767 463.971 78.4346 467.787 78.4346C470.289 78.4346 472.603 78.093 474.73 77.4099C476.857 76.7268 478.749 75.7021 480.407 74.3359C482.096 72.9386 483.503 71.2308 484.629 69.2125L500.158 70.9824C498.437 75.1432 495.92 78.7761 492.604 81.8812C489.289 84.9553 485.317 87.3462 480.688 89.054C476.091 90.7308 470.977 91.5691 465.347 91.5691Z" fill="#232323"/>
<path d="M535.767 91.5691C528.668 91.5691 522.756 90.0166 518.034 86.9115C513.342 83.8064 510.043 79.4437 508.135 73.8235C506.227 68.2033 505.883 61.6826 507.103 54.2614C508.323 46.9334 510.762 40.5214 514.421 35.0254C518.112 29.5293 522.756 25.2754 528.355 22.2634C533.985 19.2204 540.287 17.6989 547.261 17.6989C554.361 17.6989 560.256 19.267 564.948 22.4031C569.639 25.5082 572.939 29.8709 574.847 35.4911C576.786 41.1113 577.146 47.6631 575.926 55.1464C574.737 62.4433 572.282 68.8243 568.56 74.2893C564.87 79.7543 560.225 84.0082 554.627 87.0512C549.028 90.0632 542.742 91.5691 535.767 91.5691ZM537.175 78.062C541.115 78.062 544.571 77.0062 547.543 74.8948C550.545 72.7523 553 69.88 554.908 66.2781C556.847 62.6452 558.192 58.6086 558.943 54.1683C559.631 49.8832 559.647 46.0019 558.99 42.5242C558.333 39.0154 556.926 36.2363 554.767 34.187C552.641 32.1066 549.685 31.0664 545.901 31.0664C541.96 31.0664 538.473 32.1531 535.439 34.3267C532.436 36.4692 529.981 39.357 528.073 42.9899C526.166 46.5918 524.852 50.6129 524.133 55.0532C523.413 59.3383 523.382 63.2196 524.039 66.6973C524.696 70.175 526.103 72.9386 528.261 74.9879C530.419 77.0373 533.39 78.062 537.175 78.062Z" fill="#232323"/>
<path d="M598.223 10.6126H589.683L590.848 3.06101C591.139 1.22151 589.489 -0.327534 587.743 0.0597279L586.772 0.253359C585.705 0.44699 584.928 1.41514 584.734 2.48011L583.57 10.6126H575.224C574.448 10.6126 573.769 11.0967 573.478 11.7744L572.604 14.1948C572.119 15.3566 573.09 16.712 574.351 16.712H582.697L581.532 24.2636C581.241 26.1031 582.891 27.6521 584.637 27.2649L585.608 27.0712C586.675 26.8776 587.452 25.9095 587.646 24.8445L588.81 16.712H597.253C598.029 16.712 598.708 16.2279 598.999 15.5502L599.873 13.1298C600.358 11.968 599.387 10.6126 598.126 10.6126H598.223Z" fill="#232323"/>
</svg>
