<svg width="24" height="24" viewBox="0 0 24 24" fill="none" xmlns="http://www.w3.org/2000/svg">
<g clip-path="url(#clip0_11098_13548)">
<path d="M20.9601 4.44008C20.9001 4.26008 20.7801 4.13008 20.6201 4.06008C20.4601 3.98008 20.2801 3.98008 20.1101 4.04008C19.9401 4.10008 19.8101 4.22008 19.7301 4.39008L18.0001 8.27008H6.00012L4.27012 4.39008C4.20012 4.22008 4.07012 4.11008 3.89012 4.05008C3.72012 3.99008 3.54012 3.99008 3.38012 4.06008C3.22012 4.13008 3.11012 4.27008 3.04012 4.44008C2.98012 4.61008 2.98012 4.79008 3.04012 4.95008L4.63012 8.49008V18.1801C4.63012 18.6901 4.81012 19.1201 5.16012 19.4801C5.51012 19.8401 5.94012 20.0201 6.44012 20.0201H17.5401C18.0401 20.0201 18.4701 19.8401 18.8201 19.4801C19.1701 19.1201 19.3501 18.6901 19.3501 18.1801V8.50008L20.9301 4.96008C21.0001 4.79008 21.0001 4.62008 20.9301 4.45008L20.9601 4.44008Z" fill="#E1A141"/>
<path d="M14.0603 11.8799H9.94027C9.76027 11.8799 9.60027 11.9399 9.47027 12.0699C9.34027 12.1999 9.28027 12.3599 9.28027 12.5499C9.28027 12.7299 9.34027 12.8999 9.47027 13.0299C9.60027 13.1599 9.76027 13.2199 9.94027 13.2199H14.0603C14.2403 13.2199 14.4103 13.1599 14.5303 13.0299C14.6603 12.8999 14.7203 12.7399 14.7203 12.5499C14.7203 12.3599 14.6603 12.1999 14.5303 12.0699C14.4003 11.9399 14.2403 11.8799 14.0603 11.8799Z" fill="white"/>
</g>
<defs>
<clipPath id="clip0_11098_13548">
<rect width="18" height="16.03" fill="white" transform="translate(3 4)"/>
</clipPath>
</defs>
</svg>
