<svg width="24" height="24" viewBox="0 0 24 24" fill="none" xmlns="http://www.w3.org/2000/svg">
<g clip-path="url(#clip0_11098_13544)">
<path d="M14.0598 11.8799H9.93979C9.75978 11.8799 9.59978 11.9399 9.46978 12.0699C9.33978 12.1999 9.27979 12.3599 9.27979 12.5499C9.27979 12.7299 9.33978 12.8999 9.46978 13.0299C9.59978 13.1599 9.75978 13.2199 9.93979 13.2199H14.0598C14.2398 13.2199 14.4098 13.1599 14.5298 13.0299C14.6598 12.8999 14.7198 12.7399 14.7198 12.5499C14.7198 12.3599 14.6598 12.1999 14.5298 12.0699C14.3998 11.9399 14.2398 11.8799 14.0598 11.8799Z" fill="#3D3D3D"/>
<path d="M20.9601 4.44008C20.9001 4.26008 20.7801 4.13008 20.6201 4.06008C20.4601 3.98008 20.2801 3.98008 20.1101 4.04008C19.9401 4.10008 19.8101 4.22008 19.7301 4.39008L18.0001 8.27008H6.00012L4.27012 4.39008C4.20012 4.22008 4.07012 4.11008 3.89012 4.05008C3.72012 3.99008 3.54012 3.99008 3.38012 4.06008C3.22012 4.13008 3.11012 4.27008 3.04012 4.44008C2.98012 4.61008 2.98012 4.79008 3.04012 4.95008L4.63012 8.49008V18.1801C4.63012 18.6901 4.81012 19.1201 5.16012 19.4801C5.51012 19.8401 5.94012 20.0201 6.44012 20.0201H17.5401C18.0401 20.0201 18.4701 19.8401 18.8201 19.4801C19.1701 19.1201 19.3501 18.6901 19.3501 18.1801V8.50008L20.9301 4.96008C21.0001 4.79008 21.0001 4.62008 20.9301 4.45008L20.9601 4.44008ZM17.5501 18.6901H6.45012C6.30012 18.6901 6.19012 18.6401 6.10012 18.5501C6.01012 18.4601 5.96012 18.3401 5.96012 18.1901V9.61008H18.0301V18.1901C18.0301 18.3401 17.9801 18.4601 17.8901 18.5501C17.8001 18.6401 17.6901 18.6901 17.5401 18.6901H17.5501Z" fill="#3D3D3D"/>
</g>
<defs>
<clipPath id="clip0_11098_13544">
<rect width="18" height="16.03" fill="white" transform="translate(3 4)"/>
</clipPath>
</defs>
</svg>
