<svg width="25" height="25" viewBox="0 0 25 25" fill="none" xmlns="http://www.w3.org/2000/svg">
<mask id="mask0_6640_9936" style="mask-type:luminance" maskUnits="userSpaceOnUse" x="3" y="2" width="20" height="21">
<path d="M3 2.68896H23V22.689H3V2.68896Z" fill="white"/>
</mask>
<g mask="url(#mask0_6640_9936)">
<path d="M14.8842 2.83617L14.2842 2.75196C12.481 2.4916 10.6409 2.74918 8.97846 3.49466C7.31603 4.24015 5.89975 5.44283 4.89474 6.96249C3.82543 8.4151 3.18798 10.1401 3.05577 11.939C2.92355 13.7379 3.30193 15.5376 4.14737 17.1309C4.23389 17.2906 4.28776 17.4659 4.30583 17.6466C4.3239 17.8274 4.30582 18.0099 4.25263 18.1835C3.82105 19.6678 3.42105 21.1625 3 22.7309L3.52632 22.573C4.94737 22.1941 6.36842 21.8151 7.78947 21.4678C8.08941 21.4054 8.40117 21.4347 8.68421 21.552C9.95915 22.1742 11.3524 22.5165 12.7706 22.556C14.1887 22.5954 15.5989 22.331 16.9064 21.7806C18.214 21.2302 19.3887 20.4065 20.3517 19.3647C21.3147 18.3229 22.0437 17.0872 22.4898 15.7405C22.936 14.3938 23.0889 12.9673 22.9383 11.5566C22.7877 10.1459 22.3371 8.7838 21.6168 7.5616C20.8964 6.33941 19.923 5.28543 18.7618 4.47041C17.6006 3.65539 16.2785 3.09818 14.8842 2.83617ZM17.5368 16.6467C17.1543 16.9892 16.6877 17.2242 16.1848 17.3278C15.6819 17.4313 15.1604 17.3997 14.6737 17.2362C12.4684 16.6142 10.555 15.2305 9.27368 13.3309C8.78439 12.6589 8.39114 11.922 8.10526 11.1414C7.95037 10.6886 7.92244 10.2019 8.0245 9.73431C8.12656 9.2667 8.35471 8.83595 8.68421 8.4888C8.84462 8.28408 9.06296 8.13242 9.31079 8.05356C9.55863 7.9747 9.82447 7.97231 10.0737 8.0467C10.2842 8.09933 10.4316 8.40459 10.6211 8.63617C10.7754 9.07126 10.9544 9.49582 11.1579 9.90986C11.312 10.1209 11.3764 10.3844 11.337 10.6427C11.2975 10.9011 11.1575 11.1334 10.9474 11.2888C10.4737 11.7099 10.5474 12.0572 10.8842 12.5309C11.6285 13.6041 12.6561 14.4495 13.8526 14.973C14.1895 15.1204 14.4421 15.152 14.6632 14.8046C14.7579 14.6678 14.8842 14.552 14.9895 14.4256C15.6 13.6572 15.4105 13.6678 16.3789 14.0888C16.6877 14.2186 16.986 14.3695 17.2737 14.5414C17.5579 14.7099 17.9895 14.8888 18.0526 15.1414C18.1134 15.4155 18.0974 15.701 18.0064 15.9666C17.9154 16.2322 17.7529 16.4675 17.5368 16.6467Z" fill="#3D3D3D"/>
</g>
</svg>
